@startuml

package レシピ {
    class レシピ {
        ID
        タイトル
    }
}

package 材料 {
    class 材料 {
    }

    class 材料カテゴリ {
        ID
        タイトル
    }

    class 材料要素 {
        名称
        分量
    }

    材料 o-- "0..10" 材料カテゴリ
    材料カテゴリ o--"0..100" 材料要素
}

package 作り方 {
    class 作り方 {
    }

    class 手順 {
        ID
        内容
    }

    作り方 o-- "0..100" 手順
}

レシピ <-- "1" 材料
レシピ <-- "1" 作り方

@enduml
